{
  "source": "C:\\Users\\Peter\\Desktop\\stuff\\MIUN\\quantitative_research\\video_compression\\videos\\BVI-HD\\BVI-HD_CDVL_videos\\ORIG\\BricksLeaves_1920x1080_60fps.mp4",
  "output": "C:\\Users\\Peter\\Desktop\\stuff\\MIUN\\quantitative_research\\video_compression\\compressed_videos\\BVI-HD\\h264\\8\\BricksLeaves_1920x1080_60fps_h264.mp4",
  "codec": "h264",
  "ok": "Input #0, mov,mp4,m4a,3gp,3g2,mj2, from 'C:\\Users\\Peter\\Desktop\\stuff\\MIUN\\quantitative_research\\video_compression\\videos\\BVI-HD\\BVI-HD_CDVL_videos\\ORIG\\BricksLeaves_1920x1080_60fps.mp4':\n  Metadata:\n    major_brand     : isom\n    minor_version   : 512\n    compatible_brands: isomiso2avc1mp41\n    encoder         : Lavf54.28.101\n  Duration: 00:00:05.00, start: 0.000000, bitrate: 524627 kb/s\n  Stream #0:0[0x1](und): Video: h264 (High 4:4:4 Predictive) (avc1 / 0x31637661), yuv420p(progressive), 1920x1080, 524622 kb/s, 60 fps, 60 tbr, 60 tbn (default)\n    Metadata:\n      handler_name    : VideoHandler\n      vendor_id       : [0][0][0][0]\n[out#0/mp4 @ 0000017b859a9b40] Codec AVOption b:a (set bitrate (in bits/s)) has not been used for any stream. The most likely reason is either wrong type (e.g. a video option with no video streams) or that it is a private option of some decoder which was not actually used for any stream.\nStream mapping:\n  Stream #0:0 -> #0:0 (h264 (native) -> h264 (libx264))\nPress [q] to stop, [?] for help\n[libx264 @ 0000017b86550300] using cpu capabilities: MMX2 SSE2Fast SSSE3 SSE4.2 AVX FMA3 BMI2 AVX2\n[libx264 @ 0000017b86550300] profile High, level 5.0, 4:2:0, 8-bit\n[libx264 @ 0000017b86550300] 264 - core 165 r3222 b35605a - H.264/MPEG-4 AVC codec - Copyleft 2003-2025 - http://www.videolan.org/x264.html - options: cabac=1 ref=5 deblock=1:0:0 analyse=0x3:0x113 me=hex subme=8 psy=1 psy_rd=1.00:0.00 mixed_ref=1 me_range=16 chroma_me=1 trellis=2 8x8dct=1 cqm=0 deadzone=21,11 fast_pskip=1 chroma_qp_offset=-2 threads=18 lookahead_threads=3 sliced_threads=0 nr=0 decimate=1 interlaced=0 bluray_compat=0 constrained_intra=0 bframes=3 b_pyramid=2 b_adapt=1 b_bias=0 direct=3 weightb=1 open_gop=0 weightp=2 keyint=250 keyint_min=25 scenecut=40 intra_refresh=0 rc_lookahead=50 rc=cbr mbtree=1 bitrate=8000 ratetol=1.0 qcomp=0.60 qpmin=0 qpmax=69 qpstep=4 vbv_maxrate=8000 vbv_bufsize=8000 nal_hrd=none filler=0 ip_ratio=1.40 aq=1:1.00\nOutput #0, mp4, to 'C:\\Users\\Peter\\Desktop\\stuff\\MIUN\\quantitative_research\\video_compression\\compressed_videos\\BVI-HD\\h264\\8\\BricksLeaves_1920x1080_60fps_h264.mp4':\n  Metadata:\n    major_brand     : isom\n    minor_version   : 512\n    compatible_brands: isomiso2avc1mp41\n    encoder         : Lavf62.3.100\n  Stream #0:0(und): Video: h264 (avc1 / 0x31637661), yuv420p(tv, progressive), 1920x1080, q=2-31, 8000 kb/s, 60 fps, 15360 tbn (default)\n    Metadata:\n      encoder         : Lavc62.11.100 libx264\n      handler_name    : VideoHandler\n      vendor_id       : [0][0][0][0]\n    Side data:\n      cpb: bitrate max/min/avg: 8000000/0/8000000 buffer size: 8000000 vbv_delay: N/A\nframe=    0 fps=0.0 q=0.0 size=       0KiB time=N/A bitrate=N/A speed=N/A elapsed=0:00:00.51    \nframe=    0 fps=0.0 q=0.0 size=       0KiB time=N/A bitrate=N/A speed=N/A elapsed=0:00:01.08    \nframe=    0 fps=0.0 q=0.0 size=       0KiB time=N/A bitrate=N/A speed=N/A elapsed=0:00:01.64    \nframe=    0 fps=0.0 q=0.0 size=       0KiB time=N/A bitrate=N/A speed=N/A elapsed=0:00:02.23    \nframe=   25 fps=9.0 q=32.0 size=     256KiB time=00:00:00.36 bitrate=5720.5kbits/s speed=0.132x elapsed=0:00:02.77    \nframe=   41 fps= 12 q=32.0 size=     512KiB time=00:00:00.65 bitrate=6453.4kbits/s speed=0.192x elapsed=0:00:03.38    \nframe=   65 fps= 17 q=32.0 size=     768KiB time=00:00:00.98 bitrate=6398.5kbits/s speed=0.25x elapsed=0:00:03.93    \nframe=   85 fps= 19 q=32.0 size=    1024KiB time=00:00:01.38 bitrate=6064.3kbits/s speed=0.302x elapsed=0:00:04.57    \nframe=  105 fps= 20 q=32.0 size=    1280KiB time=00:00:01.71 bitrate=6108.4kbits/s speed=0.333x elapsed=0:00:05.14    \nframe=  129 fps= 23 q=32.0 size=    1792KiB time=00:00:02.11 bitrate=6935.6kbits/s speed=0.371x elapsed=0:00:05.71    \nframe=  154 fps= 25 q=32.0 size=    2048KiB time=00:00:02.53 bitrate=6622.7kbits/s speed=0.405x elapsed=0:00:06.25    \nframe=  173 fps= 25 q=32.0 size=    2304KiB time=00:00:02.85 bitrate=6622.7kbits/s speed=0.415x elapsed=0:00:06.85    \nframe=  192 fps= 26 q=33.0 size=    2816KiB time=00:00:03.01 bitrate=7647.2kbits/s speed=0.403x elapsed=0:00:07.48    \nframe=  210 fps= 26 q=34.0 size=    2816KiB time=00:00:03.41 bitrate=6751.9kbits/s speed=0.422x elapsed=0:00:08.09    \nframe=  233 fps= 27 q=36.0 size=    3328KiB time=00:00:03.85 bitrate=7081.4kbits/s speed=0.442x elapsed=0:00:08.71    \nframe=  250 fps= 27 q=38.0 size=    3584KiB time=00:00:04.13 bitrate=7103.4kbits/s speed=0.447x elapsed=0:00:09.24    \nframe=  268 fps= 27 q=40.0 size=    4096KiB time=00:00:04.41 bitrate=7597.3kbits/s speed=0.452x elapsed=0:00:09.76    \nframe=  279 fps= 27 q=39.0 size=    4352KiB time=00:00:04.61 bitrate=7722.4kbits/s speed=0.447x elapsed=0:00:10.32    \n[mp4 @ 0000017b85a37ac0] Starting second pass: moving the moov atom to the beginning of the file\n[out#0/mp4 @ 0000017b859a9b40] video:4935KiB audio:0KiB subtitle:0KiB other streams:0KiB global headers:0KiB muxing overhead: 0.089195%\nframe=  300 fps= 28 q=-1.0 Lsize=    4939KiB time=00:00:04.96 bitrate=8146.3kbits/s speed=0.457x elapsed=0:00:10.86    \n[libx264 @ 0000017b86550300] frame I:2     Avg QP:30.64  size:259721\n[libx264 @ 0000017b86550300] frame P:76    Avg QP:31.73  size: 27890\n[libx264 @ 0000017b86550300] frame B:222   Avg QP:38.21  size: 10870\n[libx264 @ 0000017b86550300] consecutive B-frames:  1.3%  0.0%  0.0% 98.7%\n[libx264 @ 0000017b86550300] mb I  I16..4:  0.2% 96.0%  3.8%\n[libx264 @ 0000017b86550300] mb P  I16..4:  0.2%  5.2%  0.3%  P16..4: 33.9%  6.4%  4.9%  0.0%  0.0%    skip:49.0%\n[libx264 @ 0000017b86550300] mb B  I16..4:  0.0%  1.4%  0.1%  B16..8: 16.7%  3.9%  1.4%  direct: 3.5%  skip:73.0%  L0:50.5% L1:43.8% BI: 5.7%\n[libx264 @ 0000017b86550300] 8x8 transform intra:92.7% inter:82.2%\n[libx264 @ 0000017b86550300] direct mvs  spatial:95.5% temporal:4.5%\n[libx264 @ 0000017b86550300] coded y,uvDC,uvAC intra: 82.6% 71.5% 25.6% inter: 11.5% 9.2% 0.5%\n[libx264 @ 0000017b86550300] i16 v,h,dc,p: 15% 26%  5% 53%\n[libx264 @ 0000017b86550300] i8 v,h,dc,ddl,ddr,vr,hd,vl,hu: 10% 11%  8% 10% 10%  9% 13% 14% 15%\n[libx264 @ 0000017b86550300] i4 v,h,dc,ddl,ddr,vr,hd,vl,hu:  8%  9%  6% 10% 11% 11% 15% 12% 17%\n[libx264 @ 0000017b86550300] i8c dc,h,v,p: 54% 18% 14% 14%\n[libx264 @ 0000017b86550300] Weighted P-Frames: Y:0.0% UV:0.0%\n[libx264 @ 0000017b86550300] ref P L0: 39.4% 13.0% 22.1% 12.1% 13.5%\n[libx264 @ 0000017b86550300] ref B L0: 64.7% 19.8% 11.6%  3.9%\n[libx264 @ 0000017b86550300] ref B L1: 86.4% 13.6%\n[libx264 @ 0000017b86550300] kb/s:8083.54\n",
  "seconds": 11.24904489517212,
  "probe_out": {}
}